<svg class="animated" id="freepik_stories-create" xmlns="http://www.w3.org/2000/svg" viewBox="0 0 500 500" version="1.1" xmlns:xlink="http://www.w3.org/1999/xlink" xmlns:svgjs="http://svgjs.com/svgjs"><style>svg#freepik_stories-create:not(.animated) .animable {opacity: 0;}svg#freepik_stories-create.animated #freepik--Bulb--inject-2 {animation: 1s 1 forwards cubic-bezier(.36,-0.01,.5,1.38) slideRight;animation-delay: 0s;}svg#freepik_stories-create.animated #freepik--Ground--inject-2 {animation: 1s 1 forwards cubic-bezier(.36,-0.01,.5,1.38) lightSpeedLeft;animation-delay: 0s;}svg#freepik_stories-create.animated #freepik--Trucks--inject-2 {animation: 1s 1 forwards cubic-bezier(.36,-0.01,.5,1.38) zoomIn;animation-delay: 0s;}            @keyframes slideRight {                0% {                    opacity: 0;                    transform: translateX(30px);                }                100% {                    opacity: 1;                    transform: translateX(0);                }            }                    @keyframes lightSpeedLeft {              from {                transform: translate3d(-50%, 0, 0) skewX(20deg);                opacity: 0;              }              60% {                transform: skewX(-10deg);                opacity: 1;              }              80% {                transform: skewX(2deg);              }              to {                opacity: 1;                transform: translate3d(0, 0, 0);              }            }                    @keyframes zoomIn {                0% {                    opacity: 0;                    transform: scale(0.5);                }                100% {                    opacity: 1;                    transform: scale(1);                }            }        </style><g id="freepik--Bulb--inject-2" style="transform-origin: 223.62px 236.92px 0px;" class="animable"><path d="M215.41,419.9c-9.11-13.87-48-72.19-59.38-73.75-11.09-1.52-50.5,57.45-61.16,73.75Z" style="fill: rgb(46, 53, 58); stroke: rgb(46, 53, 58); stroke-linecap: round; stroke-linejoin: round; transform-origin: 155.14px 383.011px 0px;" id="el1pk74p9a776" class="animable"></path><line x1="265.28" y1="79.13" x2="265.28" y2="213.62" style="fill: none; stroke: rgb(46, 53, 58); stroke-linecap: round; stroke-linejoin: round; stroke-width: 3px; transform-origin: 265.28px 146.375px 0px;" id="elytin9lh8ez" class="animable"></line><line x1="281.26" y1="82.74" x2="281.26" y2="213.62" style="fill: none; stroke: rgb(46, 53, 58); stroke-linecap: round; stroke-linejoin: round; stroke-width: 3px; transform-origin: 281.26px 148.18px 0px;" id="eldyac93b5wi" class="animable"></line><line x1="298.78" y1="154.36" x2="298.78" y2="281.13" style="fill: none; stroke: rgb(46, 53, 58); stroke-linecap: round; stroke-linejoin: round; stroke-width: 3px; transform-origin: 298.78px 217.745px 0px;" id="elm2z1kn29gl" class="animable"></line><line x1="317.33" y1="82.74" x2="317.33" y2="281.13" style="fill: none; stroke: rgb(46, 53, 58); stroke-linecap: round; stroke-linejoin: round; stroke-width: 3px; transform-origin: 317.33px 181.935px 0px;" id="eli3n28h1998e" class="animable"></line><line x1="335.88" y1="82.74" x2="335.88" y2="217.23" style="fill: none; stroke: rgb(46, 53, 58); stroke-linecap: round; stroke-linejoin: round; stroke-width: 3px; transform-origin: 335.88px 149.985px 0px;" id="el6zicz7bs4ag" class="animable"></line><line x1="251.37" y1="97.16" x2="336.4" y2="97.16" style="fill: none; stroke: rgb(46, 53, 58); stroke-linecap: round; stroke-linejoin: round; stroke-width: 3px; transform-origin: 293.885px 97.16px 0px;" id="elpqee6z255q" class="animable"></line><line x1="251.37" y1="127.05" x2="343.58" y2="127.05" style="fill: none; stroke: rgb(46, 53, 58); stroke-linecap: round; stroke-linejoin: round; stroke-width: 3px; transform-origin: 297.475px 127.05px 0px;" id="eldg4v0b3vfzr" class="animable"></line><line x1="249.83" y1="154.36" x2="352.37" y2="154.36" style="fill: none; stroke: rgb(46, 53, 58); stroke-linecap: round; stroke-linejoin: round; stroke-width: 3px; transform-origin: 301.1px 154.36px 0px;" id="ele9uk19gp7hw" class="animable"></line><line x1="248.28" y1="184.77" x2="352.37" y2="184.77" style="fill: none; stroke: rgb(46, 53, 58); stroke-linecap: round; stroke-linejoin: round; stroke-width: 3px; transform-origin: 300.325px 184.77px 0px;" id="el1h6q7twg1jh" class="animable"></line><line x1="267.86" y1="217.74" x2="346.7" y2="217.74" style="fill: none; stroke: rgb(46, 53, 58); stroke-linecap: round; stroke-linejoin: round; stroke-width: 3px; transform-origin: 307.28px 217.74px 0px;" id="ela7d5gwwcy9k" class="animable"></line><line x1="288.47" y1="249.69" x2="340" y2="249.69" style="fill: none; stroke: rgb(46, 53, 58); stroke-linecap: round; stroke-linejoin: round; stroke-width: 3px; transform-origin: 314.235px 249.69px 0px;" id="elm2i3nsntjn" class="animable"></line><line x1="152.81" y1="91.9" x2="171" y2="106.14" style="fill: none; stroke: rgb(46, 53, 58); stroke-linecap: round; stroke-linejoin: round; stroke-width: 2px; transform-origin: 161.905px 99.02px 0px;" id="elm4647gs6hj8" class="animable"></line><line x1="189.19" y1="76.88" x2="195.52" y2="86.37" style="fill: none; stroke: rgb(46, 53, 58); stroke-linecap: round; stroke-linejoin: round; stroke-width: 2px; transform-origin: 192.355px 81.625px 0px;" id="elfos61x6541w" class="animable"></line><line x1="221.62" y1="53.94" x2="227.16" y2="71.34" style="fill: none; stroke: rgb(46, 53, 58); stroke-linecap: round; stroke-linejoin: round; stroke-width: 2px; transform-origin: 224.39px 62.64px 0px;" id="elp7tvkm1cgl" class="animable"></line><path d="M325.4,277.54h-30V206.21H254.7V79.88a100,100,0,0,0-87.42,146.73c3.26,7.59,10.92,26.18,18.59,50.22,7.09,22.19,10.79,44.5,10.79,47.87,0,.33,0,.67,0,1a7.48,7.48,0,0,0,7.47,7.74H307.38a7.49,7.49,0,0,0,7.47-7.74c0-.36,0-.7,0-1C314.83,321.37,318.46,299.49,325.4,277.54Z" style="fill: #72895C; stroke: rgb(46, 53, 58); stroke-linecap: round; stroke-linejoin: round; stroke-width: 2px; transform-origin: 240.544px 206.66px 0px;" id="elqutmu61dbo" class="animable"></path><path d="M220.81,96a80.31,80.31,0,0,1,8.89-3.39" style="fill: none; stroke: rgb(46, 53, 58); stroke-linecap: round; stroke-linejoin: round; stroke-width: 2px; transform-origin: 225.255px 94.305px 0px;" id="el6jd8tywm7wt" class="animable"></path><path d="M187.51,121.34s8.15-13,26.06-21.75" style="fill: none; stroke: rgb(46, 53, 58); stroke-linecap: round; stroke-linejoin: round; stroke-width: 2px; transform-origin: 200.54px 110.465px 0px;" id="eleytq5zjxqq" class="animable"></path><path d="M189.65,265.26c3.71,12.12,8.62,28.91,10.32,38.29,2.88,15.82,1,24,7.2,25.41" style="fill: none; stroke: rgb(46, 53, 58); stroke-linecap: round; stroke-linejoin: round; stroke-width: 2px; transform-origin: 198.41px 297.11px 0px;" id="el5z7vikyf6tg" class="animable"></path><path d="M185.11,250.8s1,3.25,2.61,8.23" style="fill: none; stroke: rgb(46, 53, 58); stroke-linecap: round; stroke-linejoin: round; stroke-width: 2px; transform-origin: 186.415px 254.915px 0px;" id="elzu0h1oktkxp" class="animable"></path><path d="M249.42,332.47v-95.6s4-25-9-25-12,13,3,27,38,1,41-10-5-16-10-7,0,111,0,111" style="fill: none; stroke: rgb(46, 53, 58); stroke-linecap: round; stroke-linejoin: round; stroke-width: 2px; transform-origin: 258.221px 272.37px 0px;" id="el7ftss0z1e6" class="animable"></path><rect x="202.08" y="332.86" width="107.91" height="25.04" style="fill: rgb(255, 255, 255); stroke: rgb(46, 53, 58); stroke-linecap: round; stroke-linejoin: round; stroke-width: 2px; transform-origin: 256.035px 345.38px 0px;" id="el6qwiw6xi08j" class="animable"></rect><rect x="202.08" y="363.86" width="107.91" height="25.04" style="fill: rgb(255, 255, 255); stroke: rgb(46, 53, 58); stroke-linecap: round; stroke-linejoin: round; stroke-width: 2px; transform-origin: 256.035px 376.38px 0px;" id="eles9cxvz6mue" class="animable"></rect><rect x="202.08" y="357.9" width="107.91" height="5.96" style="fill: rgb(46, 53, 58); stroke: rgb(46, 53, 58); stroke-linecap: round; stroke-linejoin: round; transform-origin: 256.035px 360.88px 0px;" id="elx2z8xruh6qg" class="animable"></rect><rect x="202.08" y="394.86" width="107.91" height="25.04" style="fill: rgb(255, 255, 255); stroke: rgb(46, 53, 58); stroke-linecap: round; stroke-linejoin: round; stroke-width: 2px; transform-origin: 256.035px 407.38px 0px;" id="elv74dp9yy66m" class="animable"></rect><line x1="298.7" y1="354.55" x2="306.72" y2="354.55" style="fill: none; stroke: rgb(46, 53, 58); stroke-linecap: round; stroke-linejoin: round; transform-origin: 302.71px 354.55px 0px;" id="elp36zbi2uo1l" class="animable"></line><line x1="206.32" y1="354.55" x2="294.84" y2="354.55" style="fill: none; stroke: rgb(46, 53, 58); stroke-linecap: round; stroke-linejoin: round; transform-origin: 250.58px 354.55px 0px;" id="eltlbnksq57ip" class="animable"></line><line x1="277.9" y1="386.04" x2="303.75" y2="386.04" style="fill: none; stroke: rgb(46, 53, 58); stroke-linecap: round; stroke-linejoin: round; transform-origin: 290.825px 386.04px 0px;" id="elnt6jbmad4or" class="animable"></line><line x1="222.34" y1="386.04" x2="274.93" y2="386.04" style="fill: none; stroke: rgb(46, 53, 58); stroke-linecap: round; stroke-linejoin: round; transform-origin: 248.635px 386.04px 0px;" id="els0jbsy8tern" class="animable"></line><line x1="213.73" y1="386.04" x2="218.18" y2="386.04" style="fill: none; stroke: rgb(46, 53, 58); stroke-linecap: round; stroke-linejoin: round; transform-origin: 215.955px 386.04px 0px;" id="elwdiwnofekg" class="animable"></line><rect x="202.08" y="388.9" width="107.91" height="5.96" style="fill: rgb(46, 53, 58); stroke: rgb(46, 53, 58); stroke-linecap: round; stroke-linejoin: round; transform-origin: 256.035px 391.88px 0px;" id="el502st2cgvu8" class="animable"></rect><rect x="216.13" y="400.35" width="36.94" height="19.23" style="fill: #72895C; stroke: rgb(46, 53, 58); stroke-linecap: round; stroke-linejoin: round; transform-origin: 234.6px 409.965px 0px;" id="el42vs2i2ibj3" class="animable"></rect><rect x="264.2" y="400.35" width="36.94" height="19.23" style="fill: #72895C; stroke: rgb(46, 53, 58); stroke-linecap: round; stroke-linejoin: round; transform-origin: 282.67px 409.965px 0px;" id="elvi3ur5kje5" class="animable"></rect></g><g id="freepik--Ground--inject-2" style="transform-origin: 250px 403.393px 0px;" class="animable"><path d="M334.37,419.9c-7.08-6.21-37.31-32.32-46.11-33-8.62-.69-39.22,25.72-47.5,33Z" style="fill: rgb(46, 53, 58); stroke: rgb(46, 53, 58); stroke-linecap: round; stroke-linejoin: round; transform-origin: 287.565px 403.393px 0px;" id="eloh9vabj7wr9" class="animable"></path><line x1="451.08" y1="419.9" x2="459.76" y2="419.9" style="fill: rgb(255, 255, 255); stroke: rgb(46, 53, 58); stroke-linecap: round; stroke-linejoin: round; transform-origin: 455.42px 419.9px 0px;" id="eltho759uvpk" class="animable"></line><line x1="53.74" y1="419.9" x2="442.4" y2="419.9" style="fill: rgb(255, 255, 255); stroke: rgb(46, 53, 58); stroke-linecap: round; stroke-linejoin: round; transform-origin: 248.07px 419.9px 0px;" id="elq25ista1fje" class="animable"></line><line x1="40.24" y1="419.9" x2="46.99" y2="419.9" style="fill: rgb(255, 255, 255); stroke: rgb(46, 53, 58); stroke-linecap: round; stroke-linejoin: round; transform-origin: 43.615px 419.9px 0px;" id="elahyinfi1a4q" class="animable"></line></g><g id="freepik--Trucks--inject-2" style="transform-origin: 250.87px 263.87px 0px;" class="animable"><polygon points="433.61 362.83 407.66 362.83 407.66 399.23 418.41 399.23 433.61 399.23 444.37 399.23 444.37 381.03 433.61 362.83" style="fill: rgb(46, 53, 58); stroke: rgb(46, 53, 58); stroke-linecap: round; stroke-linejoin: round; transform-origin: 426.015px 381.03px 0px;" id="el6w0jl7q5nlw" class="animable"></polygon><rect x="432.48" y="399.23" width="11.89" height="8.27" style="fill: rgb(255, 255, 255); stroke: rgb(46, 53, 58); stroke-linecap: round; stroke-linejoin: round; transform-origin: 438.425px 403.365px 0px;" id="el15vu9cogqto" class="animable"></rect><path d="M388.37,398.82s13-7,8.5-42l-16.5-9-28.5-4.5-25.5,1v14.5s14.5,12.5,16,16.5a27.72,27.72,0,0,1,1.5,8.5v14Z" style="fill: #72895C; stroke: rgb(46, 53, 58); stroke-linecap: round; stroke-linejoin: round; transform-origin: 362.093px 371.07px 0px;" id="elmo1yl84i1a8" class="animable"></path><line x1="396.87" y1="356.82" x2="388.37" y2="398.82" style="fill: none; stroke: rgb(46, 53, 58); stroke-linecap: round; stroke-linejoin: round; transform-origin: 392.62px 377.82px 0px;" id="elo56bnebqck9" class="animable"></line><line x1="380.37" y1="347.82" x2="370.87" y2="398.82" style="fill: none; stroke: rgb(46, 53, 58); stroke-linecap: round; stroke-linejoin: round; transform-origin: 375.62px 373.32px 0px;" id="el897ssu6gft3" class="animable"></line><line x1="351.87" y1="343.32" x2="344.87" y2="381.32" style="fill: none; stroke: rgb(46, 53, 58); stroke-linecap: round; stroke-linejoin: round; transform-origin: 348.37px 362.32px 0px;" id="elb7ojhsx215g" class="animable"></line><path d="M327.37,356.82s16.5,7,23,11.5,5.5,14,5.5,14" style="fill: none; stroke: rgb(46, 53, 58); stroke-linecap: round; stroke-linejoin: round; transform-origin: 341.648px 369.57px 0px;" id="elc1rcc3t83m" class="animable"></path><rect x="330.36" y="399.49" width="77.53" height="6.5" style="fill: rgb(255, 255, 255); stroke: rgb(46, 53, 58); stroke-linecap: round; stroke-linejoin: round; transform-origin: 369.125px 402.74px 0px;" id="eloo1jvdiwv" class="animable"></rect><polygon points="423.37 382.82 439.56 382.82 430.87 367.82 423.37 367.82 423.37 382.82" style="fill: rgb(255, 255, 255); stroke: rgb(46, 53, 58); stroke-linecap: round; stroke-linejoin: round; transform-origin: 431.465px 375.32px 0px;" id="eltqwvqd3v67" class="animable"></polygon><rect x="413.87" y="367.82" width="7" height="15" style="fill: rgb(255, 255, 255); stroke: rgb(46, 53, 58); stroke-linecap: round; stroke-linejoin: round; transform-origin: 417.37px 375.32px 0px;" id="el67hi82kukzs" class="animable"></rect><rect x="330.77" y="399.23" width="47.2" height="11.27" style="fill: rgb(255, 255, 255); stroke: rgb(46, 53, 58); stroke-linecap: round; stroke-linejoin: round; transform-origin: 354.37px 404.865px 0px;" id="ellzk05cjk4b7" class="animable"></rect><g id="elouwrcj7xbgl"><circle cx="420.9" cy="409.98" r="9.93" style="fill: rgb(46, 53, 58); stroke: rgb(46, 53, 58); stroke-linecap: round; stroke-linejoin: round; transform-origin: 420.9px 409.98px 0px; transform: rotate(-10.24deg);" class="animable" id="elibs581v803i"></circle></g><circle cx="420.9" cy="409.98" r="5.79" style="fill: rgb(255, 255, 255); stroke: rgb(46, 53, 58); stroke-linecap: round; stroke-linejoin: round; transform-origin: 420.9px 409.98px 0px;" id="elm59k9nba71" class="animable"></circle><g id="elzlrk85umlso"><circle cx="344.4" cy="409.98" r="9.93" style="fill: rgb(46, 53, 58); stroke: rgb(46, 53, 58); stroke-linecap: round; stroke-linejoin: round; transform-origin: 344.4px 409.98px 0px; transform: rotate(-10.04deg);" class="animable" id="elyiwwdl0yw2d"></circle></g><circle cx="344.4" cy="409.98" r="5.79" style="fill: rgb(255, 255, 255); stroke: rgb(46, 53, 58); stroke-linecap: round; stroke-linejoin: round; transform-origin: 344.4px 409.98px 0px;" id="elympdbz6s278" class="animable"></circle><g id="elvmcy5dwx6ap"><circle cx="368.37" cy="409.98" r="9.93" style="fill: rgb(46, 53, 58); stroke: rgb(46, 53, 58); stroke-linecap: round; stroke-linejoin: round; transform-origin: 368.37px 409.98px 0px; transform: rotate(-42.56deg);" class="animable" id="elfsew2a5qcnj"></circle></g><circle cx="368.37" cy="409.98" r="5.79" style="fill: rgb(255, 255, 255); stroke: rgb(46, 53, 58); stroke-linecap: round; stroke-linejoin: round; transform-origin: 368.37px 409.98px 0px;" id="el7r1a5q15c8t" class="animable"></circle><rect x="336.87" y="381.82" width="31.5" height="17" rx="3.25" style="fill: rgb(46, 53, 58); stroke: rgb(46, 53, 58); stroke-linecap: round; stroke-linejoin: round; transform-origin: 352.62px 390.32px 0px;" id="elyookqgdqnl" class="animable"></rect><polyline points="324.37 398.82 324.37 349.37 334.37 349.37 334.37 398.82" style="fill: none; stroke: rgb(46, 53, 58); stroke-linecap: round; stroke-linejoin: round; transform-origin: 329.37px 374.095px 0px;" id="elbu3xgsxectl" class="animable"></polyline><line x1="324.44" y1="355.92" x2="334.26" y2="355.92" style="fill: none; stroke: rgb(46, 53, 58); stroke-linecap: round; stroke-linejoin: round; transform-origin: 329.35px 355.92px 0px;" id="elusdepn53cu" class="animable"></line><line x1="324.44" y1="363.64" x2="334.26" y2="363.64" style="fill: none; stroke: rgb(46, 53, 58); stroke-linecap: round; stroke-linejoin: round; transform-origin: 329.35px 363.64px 0px;" id="elkg9l6xeikl" class="animable"></line><line x1="324.44" y1="371.36" x2="334.26" y2="371.36" style="fill: none; stroke: rgb(46, 53, 58); stroke-linecap: round; stroke-linejoin: round; transform-origin: 329.35px 371.36px 0px;" id="elvz7nx2u8kuf" class="animable"></line><line x1="324.44" y1="379.09" x2="334.26" y2="379.09" style="fill: none; stroke: rgb(46, 53, 58); stroke-linecap: round; stroke-linejoin: round; transform-origin: 329.35px 379.09px 0px;" id="el8nu678eauzu" class="animable"></line><line x1="324.44" y1="386.81" x2="334.26" y2="386.81" style="fill: none; stroke: rgb(46, 53, 58); stroke-linecap: round; stroke-linejoin: round; transform-origin: 329.35px 386.81px 0px;" id="el5d5zs7wcqt5" class="animable"></line><line x1="324.44" y1="394.53" x2="334.26" y2="394.53" style="fill: none; stroke: rgb(46, 53, 58); stroke-linecap: round; stroke-linejoin: round; transform-origin: 329.35px 394.53px 0px;" id="elspt2hxfhcpk" class="animable"></line><polygon points="124.36 420.87 106.36 420.87 106.36 106.87 124.36 127.8 124.36 420.87" style="fill: none; stroke: rgb(46, 53, 58); stroke-linecap: round; stroke-linejoin: round; transform-origin: 115.36px 263.87px 0px;" id="eljczpjp5j55j" class="animable"></polygon><polygon points="106.54 354.87 124.19 354.87 106.54 337.8 124.19 337.8 106.54 354.87" style="fill: none; stroke: rgb(46, 53, 58); stroke-linecap: round; stroke-linejoin: round; transform-origin: 115.365px 346.335px 0px;" id="el08q5oe0hpbmn" class="animable"></polygon><polygon points="106.54 337.37 124.19 337.37 106.54 320.3 124.19 320.3 106.54 337.37" style="fill: none; stroke: rgb(46, 53, 58); stroke-linecap: round; stroke-linejoin: round; transform-origin: 115.365px 328.835px 0px;" id="eltj3szgm3bu" class="animable"></polygon><polygon points="106.54 319.87 124.19 319.87 106.54 302.8 124.19 302.8 106.54 319.87" style="fill: none; stroke: rgb(46, 53, 58); stroke-linecap: round; stroke-linejoin: round; transform-origin: 115.365px 311.335px 0px;" id="elclbghgpy3gn" class="animable"></polygon><polygon points="106.54 302.37 124.19 302.37 106.54 285.3 124.19 285.3 106.54 302.37" style="fill: none; stroke: rgb(46, 53, 58); stroke-linecap: round; stroke-linejoin: round; transform-origin: 115.365px 293.835px 0px;" id="elgqog950k8v7" class="animable"></polygon><polygon points="106.54 284.87 124.19 284.87 106.54 267.8 124.19 267.8 106.54 284.87" style="fill: none; stroke: rgb(46, 53, 58); stroke-linecap: round; stroke-linejoin: round; transform-origin: 115.365px 276.335px 0px;" id="elrsid3pucw29" class="animable"></polygon><polygon points="106.54 267.37 124.19 267.37 106.54 250.3 124.19 250.3 106.54 267.37" style="fill: none; stroke: rgb(46, 53, 58); stroke-linecap: round; stroke-linejoin: round; transform-origin: 115.365px 258.835px 0px;" id="elspomluta8hs" class="animable"></polygon><polygon points="106.54 249.87 124.19 249.87 106.54 232.8 124.19 232.8 106.54 249.87" style="fill: none; stroke: rgb(46, 53, 58); stroke-linecap: round; stroke-linejoin: round; transform-origin: 115.365px 241.335px 0px;" id="elm1zg6vakmu" class="animable"></polygon><polygon points="106.54 232.37 124.19 232.37 106.54 215.3 124.19 215.3 106.54 232.37" style="fill: none; stroke: rgb(46, 53, 58); stroke-linecap: round; stroke-linejoin: round; transform-origin: 115.365px 223.835px 0px;" id="elu7ejq8xdsmb" class="animable"></polygon><polygon points="106.54 214.87 124.19 214.87 106.54 197.8 124.19 197.8 106.54 214.87" style="fill: none; stroke: rgb(46, 53, 58); stroke-linecap: round; stroke-linejoin: round; transform-origin: 115.365px 206.335px 0px;" id="el89xjmfx3yl8" class="animable"></polygon><polygon points="106.54 197.37 124.19 197.37 106.54 180.3 124.19 180.3 106.54 197.37" style="fill: none; stroke: rgb(46, 53, 58); stroke-linecap: round; stroke-linejoin: round; transform-origin: 115.365px 188.835px 0px;" id="elos34opa6zy9" class="animable"></polygon><polygon points="106.54 179.87 124.19 179.87 106.54 162.8 124.19 162.8 106.54 179.87" style="fill: none; stroke: rgb(46, 53, 58); stroke-linecap: round; stroke-linejoin: round; transform-origin: 115.365px 171.335px 0px;" id="elkua01f64syo" class="animable"></polygon><polygon points="106.54 162.37 124.19 162.37 106.54 145.3 124.19 145.3 106.54 162.37" style="fill: none; stroke: rgb(46, 53, 58); stroke-linecap: round; stroke-linejoin: round; transform-origin: 115.365px 153.835px 0px;" id="eldm3xirt0eed" class="animable"></polygon><polygon points="106.54 144.87 124.19 144.87 106.54 127.8 124.19 127.8 106.54 144.87" style="fill: none; stroke: rgb(46, 53, 58); stroke-linecap: round; stroke-linejoin: round; transform-origin: 115.365px 136.335px 0px;" id="el40xcfuwjkxq" class="animable"></polygon><polygon points="207.93 145.34 199.21 139.85 136.98 139.85 129.38 145.34 207.93 145.34" style="fill: none; stroke: rgb(46, 53, 58); stroke-linecap: round; stroke-linejoin: round; transform-origin: 168.655px 142.595px 0px;" id="elfqvpjca87jp" class="animable"></polygon><rect x="57.37" y="144.87" width="152" height="4" style="fill: rgb(46, 53, 58); stroke: rgb(46, 53, 58); stroke-linecap: round; stroke-linejoin: round; transform-origin: 133.37px 146.87px 0px;" id="elbi5kid9dtpg" class="animable"></rect><polyline points="199.21 139.85 106.36 106.87 136.98 139.85" style="fill: none; stroke: rgb(46, 53, 58); stroke-linecap: round; stroke-linejoin: round; transform-origin: 152.785px 123.36px 0px;" id="elg930sbmrdqd" class="animable"></polyline><line x1="106.37" y1="106.87" x2="57.37" y2="144.87" style="fill: none; stroke: rgb(46, 53, 58); stroke-linecap: round; stroke-linejoin: round; transform-origin: 81.87px 125.87px 0px;" id="elrd5cm9vwf7" class="animable"></line><rect x="99.87" y="153.37" width="37.5" height="24" style="fill: rgb(46, 53, 58); stroke: rgb(46, 53, 58); stroke-linecap: round; stroke-linejoin: round; transform-origin: 118.62px 165.37px 0px;" id="el2cmxov8oixn" class="animable"></rect><rect x="107.68" y="158.37" width="21.87" height="7" style="fill: rgb(255, 255, 255); stroke: rgb(46, 53, 58); stroke-linecap: round; stroke-linejoin: round; transform-origin: 118.615px 161.87px 0px;" id="elb5l7nohua4" class="animable"></rect><line x1="209.37" y1="148.87" x2="209.37" y2="191.99" style="fill: rgb(255, 255, 255); stroke: rgb(46, 53, 58); stroke-linecap: round; stroke-linejoin: round; transform-origin: 209.37px 170.43px 0px;" id="el41cnxkf2jit" class="animable"></line><rect x="203.96" y="206.72" width="11.11" height="12.59" style="fill: rgb(46, 53, 58); stroke: rgb(46, 53, 58); stroke-linecap: round; stroke-linejoin: round; transform-origin: 209.515px 213.015px 0px;" id="elvzv4m4yzn4o" class="animable"></rect><polyline points="203.96 206.72 209.52 191.17 215.08 206.72" style="fill: none; stroke: rgb(46, 53, 58); stroke-linecap: round; stroke-linejoin: round; transform-origin: 209.52px 198.945px 0px;" id="elfvowpeugl0l" class="animable"></polyline><path d="M179.4,358.65l24,37.94,6-4.39-17.66-35.32a9.55,9.55,0,0,0-8.55-5.28h0A4.59,4.59,0,0,0,179.4,358.65Z" style="fill: #72895C; stroke: rgb(46, 53, 58); stroke-linecap: round; stroke-linejoin: round; transform-origin: 194.042px 374.095px 0px;" id="el1eb3pz7ghhq" class="animable"></path><path d="M207.29,387.26,182.6,404.82s2.2,9.32,16.46,8.77,13.72-15.36,13.72-15.36Z" style="fill: rgb(46, 53, 58); stroke: rgb(255, 255, 255); stroke-linecap: round; stroke-linejoin: round; transform-origin: 197.691px 400.437px 0px;" id="eld7m2ron75tg" class="animable"></path><path d="M138.71,375.74l44.72-20.15a7.08,7.08,0,0,1,8.6,2.25h0a7.07,7.07,0,0,1-1.64,10l-48.93,34.25Z" style="fill: #72895C; stroke: rgb(46, 53, 58); stroke-linecap: round; stroke-linejoin: round; transform-origin: 166.062px 378.528px 0px;" id="el4qn9ka6qsgh" class="animable"></path><rect x="86.04" y="400.43" width="46.09" height="7.13" style="fill: rgb(255, 255, 255); stroke: rgb(46, 53, 58); stroke-linecap: round; stroke-linejoin: round; transform-origin: 109.085px 403.995px 0px;" id="el03ofpy5k2h7s" class="animable"></rect><rect x="69.58" y="380.13" width="40.05" height="16.46" style="fill: rgb(46, 53, 58); stroke: rgb(46, 53, 58); stroke-linecap: round; stroke-linejoin: round; transform-origin: 89.605px 388.36px 0px;" id="el93jnzje7c1t" class="animable"></rect><path d="M104.42,361.47h34a3,3,0,0,1,3,3v32.1a0,0,0,0,1,0,0H101.41a0,0,0,0,1,0,0v-32.1A3,3,0,0,1,104.42,361.47Z" style="fill: #72895C; stroke: rgb(46, 53, 58); stroke-linecap: round; stroke-linejoin: round; transform-origin: 121.415px 379.02px 0px;" id="el1dblk1ik7lb" class="animable"></path><path d="M69.17,419.9h65.57a7.81,7.81,0,0,0,7.81-7.81h0a7.82,7.82,0,0,0-7.81-7.82H69.17a7.82,7.82,0,0,0-7.81,7.82h0A7.81,7.81,0,0,0,69.17,419.9Z" style="fill: rgb(46, 53, 58); stroke: rgb(46, 53, 58); stroke-linecap: round; stroke-linejoin: round; transform-origin: 101.955px 412.085px 0px;" id="elplmtpe5ywp" class="animable"></path><path d="M79.05,419.9h65.56a7.82,7.82,0,0,0,7.82-7.81h0a7.82,7.82,0,0,0-7.82-7.82H79.05a7.82,7.82,0,0,0-7.82,7.82h0A7.82,7.82,0,0,0,79.05,419.9Z" style="fill: rgb(255, 255, 255); stroke: rgb(46, 53, 58); stroke-linecap: round; stroke-linejoin: round; transform-origin: 111.83px 412.085px 0px;" id="elz4qd05rrjwp" class="animable"></path><rect x="69.58" y="396.59" width="71.87" height="5.49" style="fill: rgb(255, 255, 255); stroke: rgb(46, 53, 58); stroke-linecap: round; stroke-linejoin: round; transform-origin: 105.515px 399.335px 0px;" id="eln2cew5icbnn" class="animable"></rect><path d="M84.4,412.09a4.94,4.94,0,1,1-4.94-4.94A4.94,4.94,0,0,1,84.4,412.09Z" style="fill: rgb(46, 53, 58); stroke: rgb(46, 53, 58); stroke-linecap: round; stroke-linejoin: round; transform-origin: 79.46px 412.09px 0px;" id="el7q1ocxjxhaa" class="animable"></path><circle cx="92.63" cy="412.09" r="4.94" style="fill: rgb(46, 53, 58); stroke: rgb(46, 53, 58); stroke-linecap: round; stroke-linejoin: round; transform-origin: 92.63px 412.09px 0px;" id="el8n7di37029h" class="animable"></circle><circle cx="105.79" cy="412.09" r="4.94" style="fill: rgb(46, 53, 58); stroke: rgb(46, 53, 58); stroke-linecap: round; stroke-linejoin: round; transform-origin: 105.79px 412.09px 0px;" id="elb2xmsc5kh9o" class="animable"></circle><path d="M123.9,412.09a4.94,4.94,0,1,1-4.94-4.94A4.94,4.94,0,0,1,123.9,412.09Z" style="fill: rgb(46, 53, 58); stroke: rgb(46, 53, 58); stroke-linecap: round; stroke-linejoin: round; transform-origin: 118.96px 412.09px 0px;" id="el3dn2jbr37x4" class="animable"></path><path d="M137.07,412.09a4.94,4.94,0,1,1-4.94-4.94A4.94,4.94,0,0,1,137.07,412.09Z" style="fill: rgb(46, 53, 58); stroke: rgb(46, 53, 58); stroke-linecap: round; stroke-linejoin: round; transform-origin: 132.13px 412.09px 0px;" id="ely1khx7ign7" class="animable"></path><path d="M150.23,412.09a4.94,4.94,0,1,1-4.93-4.94A4.93,4.93,0,0,1,150.23,412.09Z" style="fill: rgb(46, 53, 58); stroke: rgb(46, 53, 58); stroke-linecap: round; stroke-linejoin: round; transform-origin: 145.29px 412.09px 0px;" id="el4xczrhod8si" class="animable"></path><path d="M188.64,361.47a2.75,2.75,0,1,0-2.74,2.75A2.74,2.74,0,0,0,188.64,361.47Z" style="fill: rgb(46, 53, 58); stroke: rgb(46, 53, 58); stroke-linecap: round; stroke-linejoin: round; transform-origin: 185.89px 361.47px 0px;" id="elakb5zlqz93u" class="animable"></path><rect x="106.34" y="365.86" width="29.08" height="17.56" style="fill: rgb(255, 255, 255); stroke: rgb(46, 53, 58); stroke-linecap: round; stroke-linejoin: round; transform-origin: 120.88px 374.64px 0px;" id="elp4q941tq6il" class="animable"></rect><rect x="119.51" y="365.86" width="15.91" height="17.56" style="fill: rgb(255, 255, 255); stroke: rgb(46, 53, 58); stroke-linecap: round; stroke-linejoin: round; transform-origin: 127.465px 374.64px 0px;" id="elscoilyxxoj" class="animable"></rect></g><defs>     <filter id="active" height="200%">         <feMorphology in="SourceAlpha" result="DILATED" operator="dilate" radius="2"></feMorphology>                <feFlood flood-color="#32DFEC" flood-opacity="1" result="PINK"></feFlood>        <feComposite in="PINK" in2="DILATED" operator="in" result="OUTLINE"></feComposite>        <feMerge>            <feMergeNode in="OUTLINE"></feMergeNode>            <feMergeNode in="SourceGraphic"></feMergeNode>        </feMerge>    </filter>    <filter id="hover" height="200%">        <feMorphology in="SourceAlpha" result="DILATED" operator="dilate" radius="2"></feMorphology>                <feFlood flood-color="#ff0000" flood-opacity="0.5" result="PINK"></feFlood>        <feComposite in="PINK" in2="DILATED" operator="in" result="OUTLINE"></feComposite>        <feMerge>            <feMergeNode in="OUTLINE"></feMergeNode>            <feMergeNode in="SourceGraphic"></feMergeNode>        </feMerge>            <feColorMatrix type="matrix" values="0   0   0   0   0                0   1   0   0   0                0   0   0   0   0                0   0   0   1   0 "></feColorMatrix>    </filter></defs></svg>